# xmcd
#
# Track frame offsets:
#	150
#	2787
#	4727
#	12125
#	14697
#	17427
#	31110
#	45222
#	59542
#	70365
#	73512
#	84332
#	86322
#	93787
#	109362
#	114347
#	130315
#	144102
#	148775
#	155977
#	170850
#	172695
#	177457
#	181910
#	192810
#	199070
#	213217
#	226722
#	229020
#	233335
#	236890
#	239567
#	252835
#	258497
#	260427
#	266302
#	273390
#	280880
#	289265
#	294095
#	297087
#
# Disc length: 4091 seconds
#
# Revision: 1
# Processed by: cddbd v1.5.1PL0 Copyright (c) Steve Scherf et al.
# Submitted via: CDex 1.50Beta5
#
DISCID=330ff929
DTITLE=効果音 - 効果音/四季を彩るSe
DYEAR=1900
DGENRE=Unclassifiable
TTITLE0=「四季」より(「春」の第一楽章の冒頭部分)
TTITLE1=ヒバリ
TTITLE2=小川のせせらぎとヒバリ
TTITLE3=ウグイス
TTITLE4=小鳥のコーラス
TTITLE5=しっとり降る春雨
TTITLE6=春雷
TTITLE7=のどかな春の海
TTITLE8=三社祭
TTITLE9=「四季」より(「夏」の第一楽章の冒頭部分)
TTITLE10=蛙の合唱
TTITLE11=ホトトギス
TTITLE12=渓谷の瀬音とカッコウ
TTITLE13=雷
TTITLE14=アブラゼミ
TTITLE15=花火大会
TTITLE16=夕立
TTITLE17=風鈴
TTITLE18=カナカナゼミ
TTITLE19=プール
TTITLE20=「四季」より(「秋」の第一楽章の冒頭部分)
TTITLE21=ツクツクホウシ
TTITLE22=鈴虫
TTITLE23=幼稚園の運動会風景
TTITLE24=秋祭り
TTITLE25=枯葉の舞う音
TTITLE26=虫しぐれ
TTITLE27=モズ
TTITLE28=コオロギ
TTITLE29=酉の市
TTITLE30=「四季」より(「冬」の第一楽章の冒頭部分)
TTITLE31=木枯し
TTITLE32=火の用心
TTITLE33=丹頂鶴
TTITLE34=雪の上を歩く音
TTITLE35=雪かき
TTITLE36=Xmasの雑踏
TTITLE37=除夜の鐘
TTITLE38=初詣
TTITLE39=チャルメラ
TTITLE40=豆まき
EXTD=
EXTT0=
EXTT1=
EXTT2=
EXTT3=
EXTT4=
EXTT5=
EXTT6=
EXTT7=
EXTT8=
EXTT9=
EXTT10=
EXTT11=
EXTT12=
EXTT13=
EXTT14=
EXTT15=
EXTT16=
EXTT17=
EXTT18=
EXTT19=
EXTT20=
EXTT21=
EXTT22=
EXTT23=
EXTT24=
EXTT25=
EXTT26=
EXTT27=
EXTT28=
EXTT29=
EXTT30=
EXTT31=
EXTT32=
EXTT33=
EXTT34=
EXTT35=
EXTT36=
EXTT37=
EXTT38=
EXTT39=
EXTT40=
PLAYORDER=
